<svg width="80" height="75" viewBox="0 0 80 75" fill="none" xmlns="http://www.w3.org/2000/svg">
<path d="M16.533 37.612C16.533 38.284 16.809 38.872 17.361 39.376C17.913 39.868 18.597 40.12 19.425 40.12C20.205 40.12 20.841 39.916 21.333 39.508C21.825 39.1 22.113 38.584 22.185 37.96C22.341 36.664 21.549 35.764 19.977 35.368L18.897 35.104C18.117 34.912 17.721 34.528 17.721 33.952C17.721 33.58 17.877 33.28 18.177 33.052C18.489 32.824 18.849 32.704 19.269 32.704C20.181 32.704 20.829 33.244 20.829 34.06H21.945C21.945 33.328 21.693 32.752 21.189 32.308C20.685 31.864 20.049 31.636 19.281 31.636C18.549 31.636 17.925 31.852 17.397 32.296C16.869 32.728 16.605 33.28 16.605 33.964C16.605 35.056 17.277 35.776 18.621 36.124L19.689 36.388C20.553 36.58 21.153 37.048 21.093 37.864C20.985 38.548 20.421 39.076 19.425 39.076C18.921 39.076 18.501 38.932 18.165 38.632C17.829 38.332 17.661 37.984 17.649 37.612H16.533ZM30.4559 37.984C29.8559 38.692 29.0879 39.04 28.1639 39.04C27.2999 39.04 26.5679 38.74 25.9799 38.128C25.3919 37.516 25.0919 36.76 25.0919 35.884C25.0919 35.008 25.3919 34.252 25.9799 33.64C26.5679 33.028 27.2999 32.716 28.1639 32.716C29.0519 32.716 29.8079 33.052 30.4319 33.736L31.2719 33.04C30.5159 32.164 29.4119 31.636 28.1639 31.636C26.9999 31.636 26.0039 32.056 25.1879 32.884C24.3839 33.712 23.9759 34.708 23.9759 35.884C23.9759 37.06 24.3839 38.056 25.1879 38.884C26.0039 39.712 26.9999 40.12 28.1639 40.12C29.4239 40.12 30.5399 39.592 31.2959 38.692L30.4559 37.984ZM36.7753 36.868C37.5073 36.808 38.0473 36.532 38.3953 36.052C38.7553 35.572 38.9353 34.996 38.9353 34.324C38.9353 33.604 38.7313 32.992 38.3233 32.488C37.9153 31.984 37.3033 31.732 36.4873 31.732H33.3073V40H34.4353V36.904H35.4913L37.6273 40H38.9833L36.7753 36.868ZM36.4513 32.776C37.3513 32.776 37.7833 33.472 37.7833 34.324C37.7833 35.188 37.3513 35.86 36.4033 35.86H34.4353V32.776H36.4513ZM40.797 35.884C40.797 37.06 41.205 38.056 42.009 38.884C42.813 39.712 43.809 40.12 44.973 40.12C46.149 40.12 47.145 39.712 47.949 38.884C48.765 38.056 49.173 37.06 49.173 35.884C49.173 34.696 48.765 33.7 47.949 32.872C47.145 32.044 46.149 31.636 44.973 31.636C43.809 31.636 42.813 32.044 42.009 32.872C41.205 33.7 40.797 34.696 40.797 35.884ZM44.973 32.716C45.837 32.716 46.569 33.028 47.157 33.64C47.745 34.252 48.045 35.008 48.045 35.884C48.045 36.76 47.745 37.516 47.157 38.128C46.569 38.74 45.837 39.04 44.973 39.04C44.109 39.04 43.377 38.74 42.789 38.128C42.201 37.516 41.913 36.76 41.913 35.884C41.913 35.008 42.213 34.252 42.801 33.64C43.389 33.028 44.121 32.716 44.973 32.716ZM51.4878 40H55.9758V38.956H52.6038V31.732H51.4878V40ZM58.0292 40H62.5172V38.956H59.1452V31.732H58.0292V40ZM17.2364 45.788H19.7444V53H20.8724V45.788H23.3804V44.732H17.2364V45.788ZM24.6157 48.884C24.6157 50.06 25.0237 51.056 25.8277 51.884C26.6317 52.712 27.6277 53.12 28.7917 53.12C29.9677 53.12 30.9637 52.712 31.7677 51.884C32.5837 51.056 32.9917 50.06 32.9917 48.884C32.9917 47.696 32.5837 46.7 31.7677 45.872C30.9637 45.044 29.9677 44.636 28.7917 44.636C27.6277 44.636 26.6317 45.044 25.8277 45.872C25.0237 46.7 24.6157 47.696 24.6157 48.884ZM28.7917 45.716C29.6557 45.716 30.3877 46.028 30.9757 46.64C31.5637 47.252 31.8637 48.008 31.8637 48.884C31.8637 49.76 31.5637 50.516 30.9757 51.128C30.3877 51.74 29.6557 52.04 28.7917 52.04C27.9277 52.04 27.1957 51.74 26.6077 51.128C26.0197 50.516 25.7317 49.76 25.7317 48.884C25.7317 48.008 26.0317 47.252 26.6197 46.64C27.2077 46.028 27.9397 45.716 28.7917 45.716ZM37.8801 45.788H40.3881V53H41.5161V45.788H44.0241V44.732H37.8801V45.788ZM45.2595 48.884C45.2595 50.06 45.6675 51.056 46.4715 51.884C47.2755 52.712 48.2715 53.12 49.4355 53.12C50.6115 53.12 51.6075 52.712 52.4115 51.884C53.2275 51.056 53.6355 50.06 53.6355 48.884C53.6355 47.696 53.2275 46.7 52.4115 45.872C51.6075 45.044 50.6115 44.636 49.4355 44.636C48.2715 44.636 47.2755 45.044 46.4715 45.872C45.6675 46.7 45.2595 47.696 45.2595 48.884ZM49.4355 45.716C50.2995 45.716 51.0315 46.028 51.6195 46.64C52.2075 47.252 52.5075 48.008 52.5075 48.884C52.5075 49.76 52.2075 50.516 51.6195 51.128C51.0315 51.74 50.2995 52.04 49.4355 52.04C48.5715 52.04 47.8395 51.74 47.2515 51.128C46.6635 50.516 46.3755 49.76 46.3755 48.884C46.3755 48.008 46.6755 47.252 47.2635 46.64C47.8515 46.028 48.5835 45.716 49.4355 45.716ZM55.9503 53H57.0783V49.904H59.2503C60.0663 49.904 60.6783 49.652 61.0863 49.16C61.5063 48.656 61.7103 48.044 61.7103 47.324C61.7103 46.604 61.5063 45.992 61.0863 45.488C60.6783 44.984 60.0663 44.732 59.2503 44.732H55.9503V53ZM59.2383 45.776C60.1383 45.776 60.5943 46.472 60.5943 47.324C60.5943 48.176 60.1263 48.86 59.1783 48.86H57.0783V45.776H59.2383Z" fill="white"/>
<line x1="44.9589" y1="22.0103" x2="39.3021" y2="16.3534" stroke="white"/>
<line x1="34.3535" y1="22.0102" x2="40.0103" y2="16.3534" stroke="white"/>
</svg>
