<svg width="80" height="75" viewBox="0 0 80 75" fill="none" xmlns="http://www.w3.org/2000/svg">
<path d="M15.624 41.612C15.624 42.284 15.9 42.872 16.452 43.376C17.004 43.868 17.688 44.12 18.516 44.12C19.296 44.12 19.932 43.916 20.424 43.508C20.916 43.1 21.204 42.584 21.276 41.96C21.432 40.664 20.64 39.764 19.068 39.368L17.988 39.104C17.208 38.912 16.812 38.528 16.812 37.952C16.812 37.58 16.968 37.28 17.268 37.052C17.58 36.824 17.94 36.704 18.36 36.704C19.272 36.704 19.92 37.244 19.92 38.06H21.036C21.036 37.328 20.784 36.752 20.28 36.308C19.776 35.864 19.14 35.636 18.372 35.636C17.64 35.636 17.016 35.852 16.488 36.296C15.96 36.728 15.696 37.28 15.696 37.964C15.696 39.056 16.368 39.776 17.712 40.124L18.78 40.388C19.644 40.58 20.244 41.048 20.184 41.864C20.076 42.548 19.512 43.076 18.516 43.076C18.012 43.076 17.592 42.932 17.256 42.632C16.92 42.332 16.752 41.984 16.74 41.612H15.624ZM28.7189 35.732V39.38H24.7229V35.732H23.6069V44H24.7229V40.4H28.7189V44H29.8469V35.732H28.7189ZM35.451 37.22L36.819 40.892H34.083L35.451 37.22ZM38.007 44H39.183L36.051 35.732H34.851L31.707 44H32.895L33.699 41.9H37.203L38.007 44ZM44.5054 40.868C45.2374 40.808 45.7774 40.532 46.1254 40.052C46.4854 39.572 46.6654 38.996 46.6654 38.324C46.6654 37.604 46.4614 36.992 46.0534 36.488C45.6454 35.984 45.0334 35.732 44.2174 35.732H41.0374V44H42.1654V40.904H43.2214L45.3574 44H46.7134L44.5054 40.868ZM44.1814 36.776C45.0814 36.776 45.5134 37.472 45.5134 38.324C45.5134 39.188 45.0814 39.86 44.1334 39.86H42.1654V36.776H44.1814ZM49.0671 44H54.0831V42.956H50.1831V40.46H53.4831V39.416H50.1831V36.776H53.9631V35.732H49.0671V44ZM62.4374 38.936C61.8254 38.936 61.3814 38.384 61.3814 37.796C61.3814 37.208 61.8494 36.776 62.4854 36.776C62.9534 36.776 63.3134 37.004 63.5894 37.46L64.4774 36.908C64.0574 36.2 63.3014 35.732 62.4854 35.732C61.8854 35.732 61.3814 35.936 60.9614 36.332C60.5414 36.728 60.3374 37.22 60.3374 37.796C60.3374 38.42 60.5294 38.912 60.9254 39.284C60.1574 39.764 59.7014 40.568 59.7014 41.468C59.7014 42.212 59.9534 42.836 60.4574 43.352C60.9734 43.856 61.6214 44.108 62.4014 44.108C63.2534 44.108 64.0214 43.784 64.4414 43.22C64.7654 43.748 65.4614 44.108 66.3374 44.108V43.1C65.3414 43.1 65.0894 42.524 65.0894 41.468V39.824H66.1334V38.948H65.0894V37.868H64.0574V38.936H62.4374ZM64.0574 41.54C64.0214 42.416 63.3494 43.064 62.4014 43.064C61.4294 43.064 60.7454 42.38 60.7454 41.468C60.7454 41.024 60.9014 40.64 61.2254 40.316C61.5494 39.992 61.9454 39.824 62.4134 39.824H64.0574V41.54ZM16.128 57H21.144V55.956H17.244V53.46H20.544V52.416H17.244V49.776H21.024V48.732H16.128V57ZM29.3212 48.732H27.9772L26.0692 51.648L24.1732 48.732H22.8292L25.3972 52.56L22.5172 57H23.8492L26.0692 53.484L28.2892 57H29.6332L26.7412 52.56L29.3212 48.732ZM31.496 57H32.624V53.904H34.796C35.612 53.904 36.224 53.652 36.632 53.16C37.052 52.656 37.256 52.044 37.256 51.324C37.256 50.604 37.052 49.992 36.632 49.488C36.224 48.984 35.612 48.732 34.796 48.732H31.496V57ZM34.784 49.776C35.684 49.776 36.14 50.472 36.14 51.324C36.14 52.176 35.672 52.86 34.724 52.86H32.624V49.776H34.784ZM38.8333 52.884C38.8333 54.06 39.2413 55.056 40.0453 55.884C40.8493 56.712 41.8453 57.12 43.0093 57.12C44.1853 57.12 45.1813 56.712 45.9853 55.884C46.8013 55.056 47.2093 54.06 47.2093 52.884C47.2093 51.696 46.8013 50.7 45.9853 49.872C45.1813 49.044 44.1853 48.636 43.0093 48.636C41.8453 48.636 40.8493 49.044 40.0453 49.872C39.2413 50.7 38.8333 51.696 38.8333 52.884ZM43.0093 49.716C43.8733 49.716 44.6053 50.028 45.1933 50.64C45.7813 51.252 46.0813 52.008 46.0813 52.884C46.0813 53.76 45.7813 54.516 45.1933 55.128C44.6053 55.74 43.8733 56.04 43.0093 56.04C42.1453 56.04 41.4133 55.74 40.8253 55.128C40.2373 54.516 39.9493 53.76 39.9493 52.884C39.9493 52.008 40.2493 51.252 40.8373 50.64C41.4253 50.028 42.1573 49.716 43.0093 49.716ZM52.9921 53.868C53.7241 53.808 54.2641 53.532 54.6121 53.052C54.9721 52.572 55.1521 51.996 55.1521 51.324C55.1521 50.604 54.9481 49.992 54.5401 49.488C54.1321 48.984 53.5201 48.732 52.7041 48.732H49.5241V57H50.6521V53.904H51.7081L53.8441 57H55.2001L52.9921 53.868ZM52.6681 49.776C53.5681 49.776 54.0001 50.472 54.0001 51.324C54.0001 52.188 53.5681 52.86 52.6201 52.86H50.6521V49.776H52.6681ZM56.6915 49.788H59.1995V57H60.3275V49.788H62.8355V48.732H56.6915V49.788Z" fill="white"/>
<line x1="42.828" y1="14.5356" x2="39.9996" y2="11.7072" stroke="white" stroke-linecap="round" stroke-linejoin="round"/>
<line x1="37.1719" y1="14.5356" x2="40.0003" y2="11.7071" stroke="white" stroke-linecap="round" stroke-linejoin="round"/>
<path d="M39.5 20.8999C39.5 21.176 39.7239 21.3999 40 21.3999C40.2761 21.3999 40.5 21.176 40.5 20.8999L39.5 20.8999ZM39.5 11.8916L39.5 20.8999L40.5 20.8999L40.5 11.8916L39.5 11.8916Z" fill="white"/>
<path d="M42.5 16.9004H43C44.1046 16.9004 45 17.7958 45 18.9004V24.9004C45 26.005 44.1046 26.9004 43 26.9004H37C35.8954 26.9004 35 26.005 35 24.9004V18.9004C35 17.7958 35.8954 16.9004 37 16.9004H37.5" stroke="white" stroke-linecap="round" stroke-linejoin="round"/>
</svg>
