<svg width="15" height="13" viewBox="0 0 15 13" fill="none" xmlns="http://www.w3.org/2000/svg">
<path d="M15 0.00687799C14.3471 0.468878 13.6242 0.822228 12.8591 1.05333C12.4485 0.579698 11.9027 0.243998 11.2957 0.0916382C10.6887 -0.0607218 10.0497 -0.022402 9.4651 0.201428C8.8805 0.425258 8.3785 0.823798 8.027 1.34314C7.6756 1.86248 7.4916 2.47756 7.5 3.10521V3.78917C6.3018 3.82033 5.1145 3.55376 4.04387 3.01318C2.97323 2.4726 2.05249 1.6748 1.36364 0.690838C1.36364 0.690838 -1.36364 6.8465 4.77273 9.5823C3.36854 10.5384 1.69579 11.0179 0 10.9502C6.1364 14.37 13.6364 10.9502 13.6364 3.08469C13.6357 2.89418 13.6175 2.70413 13.5818 2.517C14.2777 1.8286 14.7687 0.959428 15 0.00687799Z" fill="#74757B"/>
</svg>
