<svg width="7" height="15" viewBox="0 0 7 15" fill="none" xmlns="http://www.w3.org/2000/svg">
<path d="M1.51301 2.90498C1.51301 3.28298 1.51301 4.97015 1.51301 4.97015H0V7.49546H1.51301V14.9998H4.62106V7.49567H6.70671C6.70671 7.49567 6.90204 6.2848 6.99672 4.96084C6.72526 4.96084 4.63282 4.96084 4.63282 4.96084C4.63282 4.96084 4.63282 3.4917 4.63282 3.23419C4.63282 2.97612 4.97169 2.62898 5.30662 2.62898C5.64092 2.62898 6.34649 2.62898 7 2.62898C7 2.28516 7 1.09717 7 9.02072e-09C6.12759 9.02072e-09 5.13507 9.02072e-09 4.69758 9.02072e-09C1.43619 -0.000174361 1.51301 2.52764 1.51301 2.90498Z" fill="#B26F16"/>
</svg>
