<svg width="32" height="35" viewBox="0 0 32 35" fill="none" xmlns="http://www.w3.org/2000/svg">
<path d="M9.71875 20.0112L21.5935 26.9309" stroke="#F7B971" stroke-width="2.04709" stroke-linecap="round" stroke-linejoin="round"/>
<path d="M21.5761 7.84082L9.71875 14.7605" stroke="#F7B971" stroke-width="2.04709" stroke-linecap="round" stroke-linejoin="round"/>
<path d="M26.0791 10.4317C28.9598 10.4317 31.295 8.0965 31.295 5.21586C31.295 2.33522 28.9598 0 26.0791 0C23.1985 0 20.8633 2.33522 20.8633 5.21586C20.8633 8.0965 23.1985 10.4317 26.0791 10.4317Z" fill="#E78321"/>
<path d="M5.21586 22.6021C8.0965 22.6021 10.4317 20.2669 10.4317 17.3863C10.4317 14.5056 8.0965 12.1704 5.21586 12.1704C2.33522 12.1704 0 14.5056 0 17.3863C0 20.2669 2.33522 22.6021 5.21586 22.6021Z" fill="#E78321"/>
<path d="M26.0791 34.7725C28.9598 34.7725 31.295 32.4373 31.295 29.5567C31.295 26.676 28.9598 24.3408 26.0791 24.3408C23.1985 24.3408 20.8633 26.676 20.8633 29.5567C20.8633 32.4373 23.1985 34.7725 26.0791 34.7725Z" fill="#E78321"/>
</svg>
